<svg width="336" height="300" viewBox="0 0 336 300" fill="none" xmlns="http://www.w3.org/2000/svg">
<circle cx="6" cy="6" r="6" fill="white"/>
<circle cx="42" cy="6" r="6" fill="white"/>
<circle cx="78" cy="6" r="6" fill="white"/>
<circle cx="114" cy="6" r="6" fill="white"/>
<circle cx="150" cy="6" r="6" fill="white"/>
<circle cx="186" cy="6" r="6" fill="white"/>
<circle cx="222" cy="6" r="6" fill="white"/>
<circle cx="258" cy="6" r="6" fill="white"/>
<circle cx="294" cy="6" r="6" fill="white"/>
<circle cx="330" cy="6" r="6" fill="white"/>
<circle cx="6" cy="42" r="6" fill="white"/>
<circle cx="42" cy="42" r="6" fill="white"/>
<circle cx="78" cy="42" r="6" fill="white"/>
<circle cx="114" cy="42" r="6" fill="white"/>
<circle cx="150" cy="42" r="6" fill="white"/>
<circle cx="186" cy="42" r="6" fill="white"/>
<circle cx="222" cy="42" r="6" fill="white"/>
<circle cx="258" cy="42" r="6" fill="white"/>
<circle cx="294" cy="42" r="6" fill="white"/>
<circle cx="330" cy="42" r="6" fill="white"/>
<circle cx="6" cy="78" r="6" fill="white"/>
<circle cx="42" cy="78" r="6" fill="white"/>
<circle cx="78" cy="78" r="6" fill="white"/>
<circle cx="114" cy="78" r="6" fill="white"/>
<circle cx="150" cy="78" r="6" fill="white"/>
<circle cx="186" cy="78" r="6" fill="white"/>
<circle cx="222" cy="78" r="6" fill="white"/>
<circle cx="258" cy="78" r="6" fill="white"/>
<circle cx="294" cy="78" r="6" fill="white"/>
<circle cx="330" cy="78" r="6" fill="white"/>
<circle cx="6" cy="114" r="6" fill="white"/>
<circle cx="42" cy="114" r="6" fill="white"/>
<circle cx="78" cy="114" r="6" fill="white"/>
<circle cx="114" cy="114" r="6" fill="white"/>
<circle cx="150" cy="114" r="6" fill="white"/>
<circle cx="186" cy="114" r="6" fill="white"/>
<circle cx="222" cy="114" r="6" fill="white"/>
<circle cx="258" cy="114" r="6" fill="white"/>
<circle cx="294" cy="114" r="6" fill="white"/>
<circle cx="330" cy="114" r="6" fill="white"/>
<circle cx="6" cy="150" r="6" fill="white"/>
<circle cx="42" cy="150" r="6" fill="white"/>
<circle cx="78" cy="150" r="6" fill="white"/>
<circle cx="114" cy="150" r="6" fill="white"/>
<circle cx="150" cy="150" r="6" fill="white"/>
<circle cx="186" cy="150" r="6" fill="white"/>
<circle cx="222" cy="150" r="6" fill="white"/>
<circle cx="258" cy="150" r="6" fill="white"/>
<circle cx="294" cy="150" r="6" fill="white"/>
<circle cx="330" cy="150" r="6" fill="white"/>
<circle cx="6" cy="186" r="6" fill="white"/>
<circle cx="42" cy="186" r="6" fill="white"/>
<circle cx="78" cy="186" r="6" fill="white"/>
<circle cx="114" cy="186" r="6" fill="white"/>
<circle cx="150" cy="186" r="6" fill="white"/>
<circle cx="186" cy="186" r="6" fill="white"/>
<circle cx="222" cy="186" r="6" fill="white"/>
<circle cx="258" cy="186" r="6" fill="white"/>
<circle cx="294" cy="186" r="6" fill="white"/>
<circle cx="330" cy="186" r="6" fill="white"/>
<circle cx="6" cy="222" r="6" fill="white"/>
<circle cx="42" cy="222" r="6" fill="white"/>
<circle cx="78" cy="222" r="6" fill="white"/>
<circle cx="114" cy="222" r="6" fill="white"/>
<circle cx="150" cy="222" r="6" fill="white"/>
<circle cx="186" cy="222" r="6" fill="white"/>
<circle cx="222" cy="222" r="6" fill="white"/>
<circle cx="258" cy="222" r="6" fill="white"/>
<circle cx="294" cy="222" r="6" fill="white"/>
<circle cx="330" cy="222" r="6" fill="white"/>
<circle cx="6" cy="258" r="6" fill="white"/>
<circle cx="42" cy="258" r="6" fill="white"/>
<circle cx="78" cy="258" r="6" fill="white"/>
<circle cx="114" cy="258" r="6" fill="white"/>
<circle cx="150" cy="258" r="6" fill="white"/>
<circle cx="186" cy="258" r="6" fill="white"/>
<circle cx="222" cy="258" r="6" fill="white"/>
<circle cx="258" cy="258" r="6" fill="white"/>
<circle cx="294" cy="258" r="6" fill="white"/>
<circle cx="330" cy="258" r="6" fill="white"/>
<circle cx="6" cy="294" r="6" fill="white"/>
<circle cx="42" cy="294" r="6" fill="white"/>
<circle cx="78" cy="294" r="6" fill="white"/>
<circle cx="114" cy="294" r="6" fill="white"/>
<circle cx="150" cy="294" r="6" fill="white"/>
<circle cx="186" cy="294" r="6" fill="white"/>
<circle cx="222" cy="294" r="6" fill="white"/>
<circle cx="258" cy="294" r="6" fill="white"/>
<circle cx="294" cy="294" r="6" fill="white"/>
<circle cx="330" cy="294" r="6" fill="white"/>
</svg>
