<svg width="256" height="256" viewBox="0 0 256 256" fill="none" xmlns="http://www.w3.org/2000/svg">
<rect width="256" height="256" fill="#FA4028"/>
<g clip-path="url(#clip0_7143_41888)">
<path d="M49.8878 147.748C49.8878 151.537 49.3969 154.547 48.4151 156.777C47.4333 159.007 46.1282 160.602 44.4999 161.561C42.8715 162.52 41.1474 163 39.3275 163C37.8429 163 36.5498 162.76 35.4482 162.281C34.3467 161.801 33.4966 161.141 32.898 160.302C32.2993 159.463 32 158.492 32 157.388C32 156.285 32.3113 155.482 32.9339 154.835C33.5565 154.187 34.4186 153.863 35.5201 153.863C36.43 153.863 37.1604 154.091 37.7112 154.547C38.2619 155.002 38.7528 155.758 39.1838 156.813C39.7107 157.772 40.1417 158.456 40.4769 158.863C40.8122 159.271 41.2193 159.475 41.6982 159.475C42.4166 159.475 42.9554 159.199 43.3145 158.647C43.6737 158.096 43.8533 157.365 43.8533 156.453C43.8533 155.494 43.6977 154.571 43.3864 153.683C43.0751 152.796 42.68 151.777 42.201 150.626C41.7221 149.475 41.327 148.108 41.0157 146.525C40.7044 144.942 40.5488 143.024 40.5488 140.77V119.619C40.5488 117.988 40.4769 116.777 40.3333 115.986C40.1896 115.194 39.8543 114.727 39.3275 114.583C38.8007 114.439 37.9386 114.559 36.7413 114.942V112.856L49.8878 107.317V147.748ZM49.0975 102.317C50.0554 101.285 50.5343 100.002 50.5343 98.4676C50.5343 96.9329 50.0554 95.6379 49.0975 94.5827C48.1397 93.5276 46.8466 93 45.2183 93C43.5899 93 42.2609 93.5276 41.2312 94.5827C40.2015 95.6379 39.6867 96.9329 39.6867 98.4676C39.6867 100.002 40.2015 101.285 41.2312 102.317C42.2609 103.348 43.5899 103.863 45.2183 103.863C46.8466 103.863 48.1397 103.348 49.0975 102.317Z" fill="white"/>
<path d="M64.4829 149.187C62.4714 149.187 60.7114 148.767 59.2028 147.928C57.6942 147.089 56.4729 145.89 55.539 144.331C54.6051 142.772 54.1382 140.938 54.1382 138.827C54.1382 136.525 54.5213 134.595 55.2876 133.036C56.0539 131.477 57.1793 130.17 58.664 129.115C60.1487 128.06 61.9446 127.197 64.0519 126.525C65.3929 126.046 66.6979 125.602 67.9671 125.194C69.2362 124.787 70.3976 124.271 71.4512 123.647C72.7443 122.928 73.6303 122.077 74.1092 121.094C74.5882 120.11 74.8276 118.875 74.8276 117.389C74.8276 115.278 74.3846 113.647 73.4986 112.496C72.6126 111.345 71.2836 110.77 69.5116 110.77C68.1706 110.77 67.1409 111.058 66.4225 111.633C65.7042 112.209 65.2013 113.024 64.9139 114.079C64.6266 115.134 64.3392 116.309 64.0519 117.604C63.9082 118.899 63.5251 119.942 62.9025 120.734C62.2799 121.525 61.2023 121.921 59.6697 121.921C58.2809 121.921 57.2033 121.501 56.437 120.662C55.6707 119.823 55.2876 118.755 55.2876 117.46C55.2876 115.638 55.9102 113.971 57.1554 112.46C58.4006 110.95 60.1487 109.739 62.3996 108.827C64.6505 107.916 67.2846 107.46 70.3018 107.46C72.9359 107.46 75.2467 107.88 77.2342 108.719C79.2217 109.559 80.7782 110.878 81.9037 112.676C83.0292 114.475 83.5919 116.789 83.5919 119.619V140.77C83.5919 141.681 83.7476 142.365 84.0589 142.82C84.3702 143.276 84.8611 143.504 85.5316 143.504C86.0584 143.504 86.5253 143.336 86.9324 143C87.3395 142.664 87.7107 142.281 88.0459 141.849L89.2671 143.216C88.884 143.983 88.3811 144.823 87.7585 145.734C87.1359 146.645 86.2739 147.424 85.1724 148.072C84.0708 148.719 82.7299 149.043 81.1494 149.043C79.569 149.043 78.3477 148.731 77.342 148.108C76.3362 147.484 75.5939 146.633 75.115 145.554C74.6361 144.475 74.3966 143.288 74.3966 141.993V125.014C74.1571 125.254 73.8818 125.566 73.5705 125.95C73.2592 126.333 72.8162 126.717 72.2415 127.101C71.6667 127.436 71.1639 127.736 70.7328 128C70.3018 128.264 69.8468 128.516 69.3679 128.755C68.889 128.995 68.2664 129.355 67.5001 129.835C66.5902 130.362 65.7999 130.95 65.1295 131.597C64.459 132.245 63.9681 132.988 63.6568 133.827C63.3455 134.667 63.1898 135.662 63.1898 136.813C63.1898 139.019 63.7166 140.662 64.7703 141.741C65.8239 142.82 67.0691 143.36 68.5059 143.36C69.9426 143.36 71.2118 142.928 72.1696 142.065C73.1275 141.201 73.9895 140.146 74.7558 138.899L75.115 141.993C74.5882 143.048 73.8578 144.127 72.9239 145.23C71.99 146.333 70.8406 147.269 69.4757 148.036C68.1107 148.803 66.4465 149.187 64.4829 149.187Z" fill="white"/>
<path d="M120.697 162.352V160.266C121.798 160.266 122.636 160.062 123.211 159.655C123.786 159.247 124.073 158.132 124.073 156.309V119.619C124.073 117.988 124.001 116.777 123.857 115.985C123.714 115.194 123.391 114.726 122.888 114.583C122.385 114.439 121.535 114.559 120.337 114.942V112.856L133.34 107.316V156.309C133.34 157.556 133.472 158.455 133.735 159.007C133.999 159.559 134.454 159.906 135.1 160.05C135.747 160.194 136.645 160.266 137.794 160.266V162.352H120.697ZM135.639 148.324C134.346 147.892 133.184 147.268 132.155 146.453C131.125 145.638 130.155 144.774 129.245 143.863L133.34 135.518C133.34 137.532 133.663 139.307 134.31 140.842C134.957 142.376 135.878 143.587 137.076 144.475C138.273 145.362 139.638 145.806 141.171 145.806C142.512 145.806 143.757 145.374 144.906 144.511C146.056 143.647 146.965 142.185 147.636 140.122C148.306 138.06 148.642 135.374 148.642 132.065C148.642 128.132 148.33 124.786 147.708 122.029C147.085 119.271 146.199 117.161 145.05 115.698C143.9 114.235 142.416 113.503 140.596 113.503C139.59 113.503 138.62 113.719 137.686 114.151C136.752 114.583 135.854 115.23 134.992 116.093C134.13 116.957 133.388 118.012 132.765 119.259L131.832 116.957C132.598 115.278 133.58 113.719 134.777 112.28C135.974 110.842 137.399 109.679 139.051 108.791C140.704 107.904 142.583 107.46 144.691 107.46C147.277 107.46 149.6 108.204 151.659 109.691C153.718 111.177 155.323 113.336 156.472 116.165C157.622 118.995 158.196 122.472 158.196 126.597C158.196 131.393 157.406 135.434 155.826 138.719C154.245 142.005 152.102 144.535 149.396 146.309C146.69 148.084 143.589 148.971 140.093 148.971C138.417 148.971 136.932 148.755 135.639 148.324Z" fill="white"/>
<path d="M178.479 148.971C174.839 148.971 171.762 148.084 169.248 146.309C166.733 144.534 164.806 142.136 163.465 139.115C162.124 136.093 161.453 132.712 161.453 128.971C161.453 125.949 161.872 123.144 162.71 120.554C163.548 117.964 164.746 115.698 166.302 113.755C167.859 111.813 169.679 110.302 171.762 109.223C173.845 108.144 176.18 107.604 178.766 107.604C181.783 107.604 184.37 108.299 186.525 109.69C188.68 111.081 190.368 113.096 191.589 115.733C192.811 118.371 193.421 121.609 193.421 125.446H167.2V122.208H184.01C183.819 118.371 183.148 115.506 181.999 113.611C180.849 111.717 179.341 110.769 177.473 110.769C176.372 110.769 175.294 111.165 174.24 111.957C173.187 112.748 172.313 114.079 171.618 115.949C170.924 117.82 170.577 120.362 170.577 123.575C170.577 127.364 171.02 130.626 171.906 133.359C172.792 136.093 174.097 138.192 175.821 139.654C177.545 141.117 179.628 141.849 182.071 141.849C184.322 141.849 186.213 141.225 187.746 139.978C189.279 138.731 190.5 136.909 191.41 134.51L193.637 135.374C193.11 137.868 192.212 140.146 190.943 142.208C189.674 144.271 188.021 145.913 185.986 147.136C183.951 148.359 181.448 148.971 178.479 148.971Z" fill="white"/>
<path d="M213.871 148.324H196.773V146.165C197.731 146.165 198.497 145.974 199.072 145.59C199.647 145.206 199.934 144.103 199.934 142.281V119.835C199.934 118.156 199.886 116.909 199.791 116.094C199.695 115.278 199.383 114.799 198.857 114.655C198.33 114.511 197.492 114.631 196.342 115.014V112.856L209.345 107.245V142.281C209.345 143.576 209.465 144.487 209.704 145.014C209.944 145.542 210.399 145.866 211.069 145.986C211.74 146.106 212.674 146.165 213.871 146.165V148.324ZM213.799 114.942C213.224 114.942 212.65 115.254 212.075 115.878C211.5 116.501 210.925 117.329 210.351 118.36C209.776 119.391 209.225 120.53 208.698 121.777L207.765 118.899C208.291 117.556 208.902 116.225 209.596 114.906C210.291 113.588 211.141 112.377 212.147 111.273C213.152 110.17 214.182 109.259 215.236 108.54C216.289 107.82 217.439 107.46 218.684 107.46C220.36 107.46 221.665 107.952 222.599 108.935C223.533 109.918 224 111.321 224 113.144C224 114.775 223.617 116.058 222.851 116.993C222.084 117.928 221.031 118.396 219.69 118.396C218.828 118.396 218.133 118.228 217.606 117.892C217.08 117.556 216.625 117.149 216.242 116.669C215.858 116.189 215.475 115.782 215.092 115.446C214.709 115.11 214.278 114.942 213.799 114.942Z" fill="white"/>
<path d="M110.687 140.446C110.687 139.583 110.519 138.767 110.184 138C109.849 137.233 109.274 136.453 108.46 135.662C107.646 134.871 106.52 134.067 105.083 133.252L99.4801 129.799C97.3728 128.456 95.6487 126.873 94.3077 125.05C92.9668 123.228 92.2963 120.974 92.2963 118.288C92.2963 116.13 92.8111 114.259 93.8408 112.676C94.8705 111.094 96.2713 109.883 98.0433 109.043C99.8153 108.204 101.827 107.784 104.078 107.784C105.61 107.784 106.879 107.952 107.885 108.288C108.891 108.624 109.741 108.959 110.435 109.295C111.13 109.631 111.669 109.799 112.052 109.799C112.483 109.799 112.806 109.667 113.022 109.403C113.237 109.139 113.369 108.791 113.417 108.36H116.075V119.511H113.129C112.842 117.832 112.291 116.369 111.477 115.122C110.663 113.875 109.609 112.928 108.316 112.281C107.023 111.633 105.515 111.309 103.79 111.309C102.593 111.309 101.599 111.657 100.809 112.353C100.019 113.048 99.6238 114.019 99.6238 115.266C99.6238 116.705 100.055 117.892 100.917 118.827C101.779 119.763 103.12 120.806 104.94 121.957L110.543 125.41C112.172 126.369 113.596 127.46 114.818 128.683C116.039 129.906 116.985 131.249 117.655 132.712C118.326 134.175 118.661 135.794 118.661 137.568C118.661 139.583 118.134 141.453 117.08 143.18C116.027 144.906 114.506 146.285 112.519 147.317C110.531 148.348 108.173 148.863 105.443 148.863C103.671 148.863 102.15 148.647 100.881 148.216C99.6118 147.784 98.5941 147.341 97.8278 146.885C97.0615 146.429 96.4868 146.201 96.1037 146.201C95.529 146.201 95.1339 146.453 94.9184 146.957C94.7028 147.46 94.5711 147.928 94.5233 148.36H91.8652V135.194H94.8106C94.9543 137.305 95.517 139.103 96.4988 140.59C97.4806 142.077 98.7019 143.24 100.163 144.079C101.623 144.918 103.216 145.338 104.94 145.338C106.808 145.338 108.232 144.942 109.214 144.151C110.196 143.36 110.687 142.125 110.687 140.446Z" fill="white"/>
</g>
<defs>
<clipPath id="clip0_7143_41888">
<rect width="192" height="70" fill="white" transform="translate(32 93)"/>
</clipPath>
</defs>
</svg>
