<svg width="431" height="60" viewBox="0 0 431 60" fill="none" xmlns="http://www.w3.org/2000/svg">
<g clip-path="url(#clip0_1_2)">
<path d="M23.5682 25.7023L19.7248 24.0324C16.8276 22.6974 14.6261 21.1831 13.1225 19.4851C11.6188 17.7894 10.867 15.5212 10.867 12.6848C10.867 9.84843 11.8413 7.69253 13.7922 6.05077C15.7409 4.41116 18.139 3.58812 20.98 3.58812C21.9262 3.58812 22.7062 3.62916 23.3197 3.71341C23.9311 3.79766 24.6009 3.95104 25.3246 4.17138C26.5496 4.50621 27.6363 5.07651 28.5847 5.88227C29.531 6.69019 30.4772 8.06625 31.4257 10.0126L34.8521 16.2707H35.6882L36.1894 6.25599C34.2385 4.92097 31.9399 3.86463 29.2955 3.08479C26.6489 2.30711 23.849 1.91611 20.8957 1.91611C16.8276 1.91611 13.2759 2.55554 10.2405 3.83438C7.20289 5.11539 4.83505 6.95158 3.13695 9.34293C1.43669 11.7365 0.587638 14.5728 0.587638 17.8542C0.587638 22.4166 1.93791 26.0738 4.64061 28.8281C7.34331 31.5824 11.0895 34.0169 15.8813 36.1296L19.3078 37.631C22.2611 39.0783 24.4064 40.5667 25.7437 42.0961C27.081 43.6277 27.7486 45.7555 27.7486 48.4796C27.7486 51.3721 26.7591 53.7375 24.7823 55.5737C22.8034 57.4099 20.1158 58.328 16.7174 58.328C15.4341 58.328 14.2783 58.2308 13.2499 58.0364C12.2173 57.8419 11.1457 57.4661 10.0331 56.9087C8.47322 56.2412 7.24609 55.3102 6.356 54.1134C5.46374 52.9188 4.62765 51.5406 3.84773 49.9831L1.25737 44.5588H0.416964L0 55.9086C2.11722 57.1334 4.76376 58.1206 7.93959 58.8702C11.1154 59.622 14.2351 59.9978 17.3008 59.9978C24.0975 59.9978 29.3495 58.4533 33.0546 55.3663C36.7598 52.2794 38.6134 48.2873 38.6134 43.3923C38.6134 39.2187 37.4425 35.8121 35.1027 33.1701C32.763 30.5282 28.9174 28.0374 23.5703 25.7023H23.5682ZM74.4658 19.6515C71.344 17.9557 67.8074 17.1068 63.8516 17.1068C59.8959 17.1068 56.3419 17.9708 53.1964 19.6947C50.0486 21.4207 47.5684 23.8682 45.758 27.0373C43.9475 30.2085 43.0423 33.9629 43.0423 38.3028C43.0423 42.6427 43.8914 46.4252 45.5916 49.6526C47.2897 52.8799 49.7008 55.3685 52.8204 57.1204C55.9401 58.8724 59.6172 59.7494 63.8516 59.7494C68.0861 59.7494 71.7502 58.8724 74.8417 57.1204C77.9333 55.3685 80.3292 52.8929 82.0295 49.6936C83.7276 46.4943 84.5788 42.6988 84.5788 38.3028C84.5788 33.9068 83.6736 30.1242 81.8632 26.953C80.0527 23.7818 77.5855 21.3494 74.4658 19.6515ZM71.0804 50.4864C70.5511 53.3228 69.7021 55.2994 68.5311 56.4119C67.3602 57.5244 65.8003 58.0817 63.8516 58.0817C61.9029 58.0817 60.3279 57.5266 59.1289 56.4119C57.9299 55.2994 57.0679 53.3249 56.5385 50.4864C56.0092 47.65 55.7435 43.6428 55.7435 38.4691C55.7435 33.2954 56.0071 29.2061 56.5385 26.3698C57.0679 23.5334 57.9299 21.559 59.1289 20.4443C60.3258 19.3318 61.9007 18.7744 63.8516 18.7744C65.8025 18.7744 67.3623 19.3318 68.5311 20.4443C69.7021 21.5568 70.549 23.5312 71.0804 26.3698C71.6097 29.2061 71.8755 33.2414 71.8755 38.4691C71.8755 43.6969 71.6097 47.6479 71.0804 50.4864ZM153.862 53.3228V28.8713C153.862 24.8101 152.928 21.8333 151.062 19.9431C149.195 18.0529 146.283 17.1068 142.327 17.1068C139.931 17.1068 137.466 17.7051 134.93 18.9019C132.394 20.0987 130.041 21.7253 127.867 23.784C127.031 21.5028 125.806 19.82 124.19 18.7356C122.574 17.6511 120.429 17.1089 117.754 17.1089C115.08 17.1089 112.725 17.7483 110.357 19.0293C107.989 20.3104 105.885 21.8657 104.046 23.7019L103.379 18.027L102.543 17.1932L88.2515 22.0342V22.868L89.5046 23.2029C90.6194 23.4254 91.3712 23.8293 91.7601 24.4126C92.149 24.9959 92.3456 25.901 92.3456 27.1237V53.2428C92.2894 54.3554 92.0539 55.2454 91.6348 55.9129C91.2178 56.5804 90.4768 57.0535 89.4203 57.3321L88.2494 57.667V58.5008H107.89V57.667L107.138 57.4164C105.187 56.8612 104.213 55.4981 104.213 53.3271V25.3696C105.604 24.1469 106.941 23.2137 108.225 22.5743C109.506 21.9348 110.787 21.6151 112.07 21.6151C114.019 21.6151 115.4 22.0882 116.208 23.0344C117.016 23.9806 117.42 25.5662 117.42 27.7912V53.2428C117.42 54.3554 117.21 55.2324 116.793 55.8718C116.376 56.5113 115.635 56.9995 114.579 57.3321L113.408 57.667V58.5008H132.798V57.667L132.046 57.4164C130.095 56.8612 129.092 55.4981 129.036 53.3271V31.7141C129.036 30.5455 128.995 29.4329 128.911 28.3766C128.827 27.3203 128.645 26.346 128.369 25.456C129.872 24.1771 131.307 23.218 132.672 22.5764C134.038 21.937 135.444 21.6173 136.894 21.6173C138.732 21.6173 140.07 22.0493 140.906 22.9113C141.742 23.7753 142.159 25.3739 142.159 27.7091V53.245C142.159 54.3575 141.949 55.2475 141.532 55.915C141.115 56.5825 140.374 57.0837 139.318 57.4164L138.482 57.667V58.5008H157.787V57.667L156.867 57.4164C154.862 56.8612 153.857 55.4981 153.857 53.3271L153.862 53.3228ZM191.304 19.3167C188.74 17.8434 185.648 17.1046 182.027 17.1046C178.406 17.1046 175.272 17.9384 172.124 19.6083C168.976 21.2781 166.399 23.7127 164.394 26.9098C162.389 30.1091 161.384 33.991 161.384 38.5512C161.384 43.1114 162.249 46.7298 163.975 49.901C165.701 53.0722 168.097 55.5068 171.163 57.2025C174.226 58.8983 177.737 59.7473 181.692 59.7473C185.648 59.7473 189.144 58.8832 192.015 57.1593C194.884 55.4355 197.183 53.0419 198.909 49.9831L198.073 49.2313C196.569 50.9573 194.951 52.2643 193.225 53.1543C191.497 54.0443 189.241 54.4893 186.456 54.4893C182.332 54.4893 179.227 53.1694 177.138 50.5253C175.049 47.8834 173.975 43.5564 173.921 37.5489H198.827C198.993 37.0477 199.106 36.4774 199.162 35.838C199.216 35.1986 199.246 34.5743 199.246 33.9608C199.246 30.7356 198.563 27.856 197.198 25.3242C195.833 22.7924 193.869 20.7899 191.306 19.3167H191.304ZM188.213 35.8812H173.921C173.975 31.375 174.325 27.8841 174.967 25.4085C175.607 22.9329 176.499 21.209 177.642 20.2347C178.782 19.2626 180.163 18.7744 181.779 18.7744C184.62 18.7744 186.543 20.1095 187.545 22.7795C188.548 25.4495 188.77 29.8175 188.213 35.8812ZM255.659 19.1914L257.498 19.6925C259.114 20.2499 259.531 21.5849 258.751 23.6976L250.811 46.7298L243.122 23.5312C242.731 22.4187 242.621 21.5849 242.787 21.0275C242.954 20.4724 243.455 20.0252 244.291 19.6925L245.462 19.1914V18.3575H228.161V19.1914L229.583 19.8589C230.25 20.1375 230.795 20.5977 231.212 21.2349C231.629 21.8743 232.033 22.8076 232.424 24.0302L234.012 28.787L227.075 47.1467L219.301 23.5312C218.578 21.5287 219.301 20.1937 221.475 19.5262L222.728 19.1914V18.3575H202.251V19.1914L203.673 19.6925C205.511 20.4162 206.736 21.667 207.35 23.447L220.219 58.7471H225.067L234.93 31.4592L244.207 58.7471H248.469L260.505 23.447C260.84 22.4446 261.216 21.6518 261.633 21.0686C262.05 20.4853 262.732 20.0533 263.681 19.7746L265.686 19.1914V18.3575H255.657V19.1914H255.659ZM308.646 55.9086C308.199 55.241 307.978 54.351 307.978 53.2385V29.7051C307.978 25.4214 306.905 22.2502 304.762 20.1915C302.616 18.135 299.732 17.1046 296.111 17.1046C293.38 17.1046 290.887 17.6749 288.632 18.8155C286.376 19.9561 284.272 21.3343 282.321 22.9458V12.5185L282.656 0.751755L281.319 0L266.608 3.58812V4.42196L267.861 4.7568C268.976 5.03546 269.728 5.45239 270.119 6.00756C270.508 6.5649 270.704 7.42682 270.704 8.5955V53.1564C270.704 55.2713 269.702 56.6603 267.695 57.3278L266.693 57.6626V58.4965H286.249V57.6626L285.581 57.4963C283.576 56.885 282.572 55.4938 282.572 53.3228V24.283C284.075 23.1143 285.551 22.2956 287.001 21.8203C288.448 21.3494 289.785 21.1118 291.013 21.1118C292.905 21.1118 294.229 21.5287 294.983 22.3626C295.737 23.1964 296.111 24.728 296.111 26.953V53.1564C296.111 55.3253 295.109 56.7446 293.102 57.4121L292.099 57.6626V58.4965H311.656V57.6626L310.988 57.4121C309.873 57.0794 309.093 56.5782 308.648 55.9107L308.646 55.9086ZM345.168 19.3167C342.604 17.8434 339.512 17.1046 335.891 17.1046C332.27 17.1046 329.136 17.9384 325.988 19.6083C322.84 21.2781 320.263 23.7127 318.258 26.9098C316.253 30.1091 315.248 33.991 315.248 38.5512C315.248 43.1114 316.112 46.7298 317.839 49.901C319.565 53.0722 321.961 55.5068 325.026 57.2025C328.09 58.8983 331.601 59.7473 335.556 59.7473C339.512 59.7473 343.008 58.8832 345.879 57.1593C348.748 55.4355 351.047 53.0419 352.775 49.9831L351.939 49.2313C350.435 50.9573 348.817 52.2643 347.091 53.1543C345.363 54.0443 343.107 54.4893 340.322 54.4893C336.198 54.4893 333.093 53.1694 331.004 50.5253C328.915 47.8834 327.841 43.5564 327.787 37.5489H352.693C352.859 37.0477 352.972 36.4774 353.028 35.838C353.082 35.1986 353.112 34.5743 353.112 33.9608C353.112 30.7356 352.429 27.856 351.064 25.3242C349.699 22.7924 347.735 20.7899 345.172 19.3167H345.168ZM342.077 35.8812H327.785C327.839 31.375 328.189 27.8841 328.831 25.4085C329.47 22.9329 330.363 21.209 331.506 20.2347C332.646 19.2626 334.027 18.7744 335.643 18.7744C338.484 18.7744 340.407 20.1095 341.409 22.7795C342.411 25.4495 342.634 29.8175 342.077 35.8812ZM385.035 17.1046C383.531 17.1046 382.012 17.5215 380.48 18.3554C378.947 19.1892 377.555 20.2607 376.302 21.5676C375.049 22.8745 374.032 24.3089 373.252 25.8643V25.1968L372.5 18.0205L371.664 17.1867L357.288 22.0277V22.8616L358.541 23.1964C359.656 23.4189 360.421 23.8229 360.84 24.4061C361.257 24.9894 361.466 25.8945 361.466 27.1172V53.2364C361.466 54.2949 361.257 55.1546 360.84 55.8243C360.423 56.4918 359.656 56.993 358.541 57.3257L357.288 57.6605V58.4943H378.934V57.6605L376.259 56.9087C374.308 56.3536 373.334 54.9624 373.334 52.7352V29.4524C373.669 28.5624 374.016 27.7696 374.379 27.074C374.74 26.3784 375.2 25.78 375.758 25.2788C376.369 24.5012 377.039 24.1512 377.763 24.2355C378.486 24.3197 379.128 24.7496 379.685 25.5294L379.852 25.6958C381.634 28.0331 383.697 29.1996 386.037 29.1996C387.541 29.1996 388.837 28.6855 389.924 27.6551C391.01 26.6268 391.553 25.1665 391.553 23.2742C391.553 21.4942 390.995 20.0187 389.88 18.8522C388.766 17.6835 387.15 17.1003 385.032 17.1003L385.035 17.1046ZM430.918 35.838C430.972 35.1986 431.002 34.5743 431.002 33.9608C431.002 30.7356 430.319 27.856 428.954 25.3242C427.589 22.7924 425.625 20.7899 423.063 19.3167C420.498 17.8434 417.407 17.1046 413.786 17.1046C410.165 17.1046 407.03 17.9384 403.882 19.6083C400.734 21.2781 398.157 23.7127 396.152 26.9098C394.147 30.1091 393.143 33.991 393.143 38.5512C393.143 43.1114 394.007 46.7298 395.733 49.901C397.459 53.0722 399.855 55.5068 402.921 57.2025C405.984 58.8983 409.495 59.7473 413.451 59.7473C417.407 59.7473 420.902 58.8832 423.773 57.1593C426.642 55.4355 428.941 53.0419 430.667 49.9831L429.831 49.2313C428.328 50.9573 426.709 52.2643 424.983 53.1543C423.255 54.0443 420.999 54.4893 418.215 54.4893C414.09 54.4893 410.986 53.1694 408.897 50.5253C406.807 47.8834 405.734 43.5564 405.68 37.5489H430.585C430.752 37.0477 430.864 36.4774 430.92 35.838H430.918ZM419.969 35.879H405.678C405.732 31.3728 406.082 27.8819 406.723 25.4063C407.363 22.9307 408.255 21.2068 409.398 20.2326C410.539 19.2605 411.919 18.7723 413.535 18.7723C416.376 18.7723 418.299 20.1073 419.301 22.7773C420.304 25.4473 420.526 29.8153 419.969 35.879Z" fill="white"/>
</g>
<defs>
<clipPath id="clip0_1_2">
<rect width="431" height="60" fill="white"/>
</clipPath>
</defs>
</svg>
